HIERARCHY
ROOT Hips
{
  OFFSET 0.0 0.0 0.0
  CHANNELS 6 Xposition Yposition Zposition Zrotation Yrotation Xrotation
  JOINT LHipJoint
  {
    OFFSET 0.0 0.0 0.0
    CHANNELS 3 Zrotation Yrotation Xrotation
    JOINT LeftUpLeg
    {
      OFFSET 1.363059998 -1.794630051 0.839290023
      CHANNELS 3 Zrotation Yrotation Xrotation
      JOINT LeftLeg
      {
        OFFSET 2.448110104 -6.726130009 0.0
        CHANNELS 3 Zrotation Yrotation Xrotation
        JOINT LeftFoot
        {
          OFFSET 2.562200069 -7.039589882 0.0
          CHANNELS 3 Zrotation Yrotation Xrotation
          JOINT LeftToeBase
          {
            OFFSET 0.157639995 -0.433109999 2.322550058
            CHANNELS 3 Zrotation Yrotation Xrotation
            End Site
            {
              OFFSET 0.0 -0.0 1.189659953
            }
          }
        }
      }
    }
  }
  JOINT RHipJoint
  {
    OFFSET 0.0 0.0 0.0
    CHANNELS 3 Zrotation Yrotation Xrotation
    JOINT RightUpLeg
    {
      OFFSET -1.305520058 -1.794630051 0.839290023
      CHANNELS 3 Zrotation Yrotation Xrotation
      JOINT RightLeg
      {
        OFFSET -2.54253006 -6.985549927 0.0
        CHANNELS 3 Zrotation Yrotation Xrotation
        JOINT RightFoot
        {
          OFFSET -2.568259954 -7.056230068 0.0
          CHANNELS 3 Zrotation Yrotation Xrotation
          JOINT RightToeBase
          {
            OFFSET -0.164729998 -0.452589989 2.363149881
            CHANNELS 3 Zrotation Yrotation Xrotation
            End Site
            {
              OFFSET -0.0 -0.0 1.21081996
            }
          }
        }
      }
    }
  }
  JOINT LowerBack
  {
    OFFSET 0.0 0.0 0.0
    CHANNELS 3 Zrotation Yrotation Xrotation
    JOINT Spine
    {
      OFFSET 0.028270001 2.035589933 -0.193379998
      CHANNELS 3 Zrotation Yrotation Xrotation
      JOINT Spine1
      {
        OFFSET 0.05672 2.04885006 -0.042750001
        CHANNELS 3 Zrotation Yrotation Xrotation
        JOINT Neck
        {
          OFFSET 0.0 0.0 0.0
          CHANNELS 3 Zrotation Yrotation Xrotation
          JOINT Neck1
          {
            OFFSET -0.054170001 1.74624002 0.172020003
            CHANNELS 3 Zrotation Yrotation Xrotation
            JOINT Head
            {
              OFFSET 0.10407 1.761360049 -0.123970002
              CHANNELS 3 Zrotation Yrotation Xrotation
              End Site
              {
                OFFSET 0.0372 1.770439982 -0.062410001
              }
            }
          }
        }
        JOINT LeftShoulder
        {
          OFFSET 0.0 0.0 0.0
          CHANNELS 3 Zrotation Yrotation Xrotation
          JOINT LeftArm
          {
            OFFSET 3.362410069 1.200889945 -0.311210006
            CHANNELS 3 Zrotation Yrotation Xrotation
            JOINT LeftForeArm
            {
              OFFSET 4.982999802 -0.0 -0.0
              CHANNELS 3 Zrotation Yrotation Xrotation
              JOINT LeftHand
              {
                OFFSET 3.483560085 -0.0 -0.0
                CHANNELS 3 Zrotation Yrotation Xrotation
                JOINT LeftFingerBase
                {
                  OFFSET 0.0 0.0 0.0
                  CHANNELS 3 Zrotation Yrotation Xrotation
                  JOINT LeftHandIndex1
                  {
                    OFFSET 0.715260029 -0.0 -0.0
                    CHANNELS 3 Zrotation Yrotation Xrotation
                    End Site
                    {
                      OFFSET 0.576659977 -0.0 -0.0
                    }
                  }
                }
                JOINT LThumb
                {
                  OFFSET 0.0 0.0 0.0
                  CHANNELS 3 Zrotation Yrotation Xrotation
                  End Site
                  {
                    OFFSET 0.585470021 -0.0 0.585470021
                  }
                }
              }
            }
          }
        }
        JOINT RightShoulder
        {
          OFFSET 0.0 0.0 0.0
          CHANNELS 3 Zrotation Yrotation Xrotation
          JOINT RightArm
          {
            OFFSET -3.136600018 1.374050021 -0.404650003
            CHANNELS 3 Zrotation Yrotation Xrotation
            JOINT RightForeArm
            {
              OFFSET -5.241899967 -0.0 -0.0
              CHANNELS 3 Zrotation Yrotation Xrotation
              JOINT RightHand
              {
                OFFSET -3.444169998 -0.0 -0.0
                CHANNELS 3 Zrotation Yrotation Xrotation
                JOINT RightFingerBase
                {
                  OFFSET 0.0 0.0 0.0
                  CHANNELS 3 Zrotation Yrotation Xrotation
                  JOINT RightHandIndex1
                  {
                    OFFSET -0.622529984 -0.0 -0.0
                    CHANNELS 3 Zrotation Yrotation Xrotation
                    End Site
                    {
                      OFFSET -0.501900017 -0.0 -0.0
                    }
                  }
                }
                JOINT RThumb
                {
                  OFFSET 0.0 0.0 0.0
                  CHANNELS 3 Zrotation Yrotation Xrotation
                  End Site
                  {
                    OFFSET -0.509559989 -0.0 0.509559989
                  }
                }
              }
            }
          }
        }
      }
    }
  }
}
MOTION
Frames: 10
Frame Time: 0.0083333
0.0 17.770500183 0.0 -59.80022049 -80.173927307 57.221206665 0.0 -0.0 0.0 5.065000057 -11.609099388 -18.897701263 1.737400413 8.296300888 23.617601395 0.67599982 8.211200714 -20.621400833 0.0041 0.411799997 1.131500244 0.0 -0.0 0.0 36.779994965 6.456099033 7.834400177 -1.5127002 -7.767399788 22.009698868 -0.708999753 8.967301369 -15.344595909 -2.152499914 -9.176799774 26.349998474 4.525900364 0.9623999 10.608299255 2.638800144 1.906000137 0.505400002 -0.068199985 0.829299867 -5.369299889 -9.710299492 -12.377599716 -3.96420002 13.148999214 -16.77189827 2.405699492 4.565300465 -8.191100121 3.301600218 0.0 -0.0 0.0 -86.245109558 6.579801083 9.893699646 21.560098648 -32.476299286 -6.348001003 0.0 0.0 -3.217200041 15.427602768 -7.692699432 -2.115600109 -7.125 0.0 0.0 -8.285600662 22.031700134 4.619799137 0.0 -0.0 0.0 78.78288269 4.412602425 24.249994278 -45.811100006 51.159690857 -22.868801117 0.0 0.0 -6.79610014 -20.863294601 -22.151798248 8.177899361 7.125 -0.0 0.0 8.360901833 -53.329013824 -1.72230196 
-0.122299194 17.7458992 0.056599617 -62.646713257 -80.331588745 60.137516022 0.0 -0.0 0.0 5.550899982 -12.686499596 -18.652793884 1.55069983 7.859701157 22.288702011 0.912700355 7.475700378 -22.241897583 0.027000003 1.059800029 2.913300037 0.0 -0.0 0.0 36.812091827 6.628200054 8.330597878 -1.524399996 -7.795900345 22.095895767 -0.748399734 9.023097992 -15.734397888 -2.046599627 -8.962400436 25.677694321 4.302500248 0.905699849 10.584002495 2.789300442 1.808900476 0.492900223 0.229199916 0.787499964 -5.383899212 -9.699701309 -12.334599495 -3.763799191 13.184400558 -16.687801361 1.976601005 4.608000278 -8.165801048 3.134000778 0.0 -0.0 0.0 -86.265197754 6.506999016 9.673998833 21.857299805 -32.815391541 -6.508298397 0.0 0.0 -2.251299858 14.720499039 -8.063500404 -2.110599756 -7.125 0.0 0.0 -8.784601212 21.682598114 4.974899292 0.0 -0.0 0.0 78.960792542 4.914103508 23.268198013 -46.122406006 51.306713104 -23.111509323 0.0 0.0 -5.194301128 -20.242801666 -21.648397446 7.747300148 7.125 -0.0 0.0 8.803902626 -52.697509766 -1.678102136 
-0.246099472 17.730699539 0.114599228 -65.73765564 -80.677726746 63.327552795 0.0 -0.0 0.0 5.756599426 -13.301502228 -18.550300598 1.407999873 7.505298615 21.221298218 1.091500044 6.843901634 -23.327001572 0.020400003 0.922999978 2.536900997 0.0 -0.0 0.0 36.618404388 6.885100842 8.869402885 -1.539399624 -7.832399845 22.206195831 -0.775700152 9.18999958 -16.022403717 -2.007499933 -8.881700516 25.426101685 4.031699181 0.857399881 10.540498734 2.84070015 1.713600397 0.47300005 0.449399918 0.747800112 -5.392399311 -9.513097763 -12.342199326 -3.795499086 13.002400398 -16.672996521 1.79509902 4.534399986 -8.163499832 3.051199675 0.0 -0.0 0.0 -86.231407166 6.470601082 9.579100609 22.216199875 -33.220500946 -6.703899384 0.0 0.0 -1.735000014 14.17650032 -8.158099174 -2.052899837 -7.125 0.0 0.0 -9.173701286 21.609304428 5.216299057 0.0 -0.0 0.0 78.349212646 4.95070076 23.831802368 -46.749713898 51.597396851 -23.602111816 0.0 0.0 -5.892700195 -20.777597427 -21.142002106 7.792399883 7.125 -0.0 0.0 8.090100288 -52.271903992 -1.455999613 
-0.371599197 17.725799561 0.17979908 -68.169967651 -81.005638123 65.951477051 0.0 -0.0 0.0 5.902500153 -14.492199898 -18.374897003 1.290899873 7.199199677 20.30680275 1.282399774 6.466399193 -24.620199203 0.015700001 0.809000075 2.223399878 0.0 -0.0 0.0 36.285900116 7.086201191 9.277701378 -1.552800179 -7.86480093 22.304101944 -0.802599967 9.417198181 -16.3125 -2.010000229 -8.886799812 25.44200325 3.936101437 0.814499974 10.326601982 2.761700153 1.632400036 0.440799981 0.435199976 0.711900115 -5.308000088 -9.040502548 -12.502700806 -3.843499899 12.766402245 -16.88409996 1.663400173 4.382499218 -8.271398544 2.981400013 0.0 -0.0 0.0 -85.99861145 6.384902477 9.756197929 22.554004669 -33.597492218 -6.889902115 0.0 0.0 -1.626999974 14.293800354 -8.23029995 -2.088800192 -7.125 0.0 0.0 -9.086401939 21.530902863 5.181800842 0.0 -0.0 0.0 77.920608521 5.054597378 24.131502151 -47.317085266 51.85439682 -24.047590256 0.0 0.0 -6.546299458 -21.715400696 -20.737298965 8.026800156 7.125 -0.0 0.0 7.017600536 -52.018791199 -1.217700243 
-0.493299484 17.702899933 0.245599747 -69.813674927 -81.26789856 67.80947876 0.0 -0.0 0.0 5.981799603 -15.501998901 -18.297401428 1.192800164 6.93020153 19.508901596 1.43609941 6.200799465 -25.628904343 0.0 0.0003 0.0008 0.0 -0.0 0.0 36.225200653 7.905997753 9.925599098 -1.569100022 -7.904099941 22.42309761 -0.86800009 9.07849884 -16.853702545 -2.123000145 -9.117602348 26.164007187 3.863600254 0.851600111 10.078800201 2.629199982 1.655499697 0.434599936 0.337299973 0.727399766 -5.172799587 -8.755000114 -12.765199661 -3.79729867 12.77659893 -17.240398407 1.444401145 4.323599339 -8.453998566 2.92320013 0.0 -0.0 0.0 -85.617599487 6.169700623 10.174200058 22.862701416 -33.938301086 -7.061501503 0.0 0.0 -1.470800161 14.539199829 -8.281498909 -2.13929987 -7.125 0.0 0.0 -8.907601357 21.468196869 5.090099812 0.0 -0.0 0.0 77.694015503 5.175394535 23.958600998 -48.041194916 52.174301147 -24.618196487 0.0 0.0 -6.542500019 -22.752002716 -20.851799011 8.490301132 7.125 -0.0 0.0 6.011598587 -52.323997498 -1.086997986 
-0.610898972 17.689699173 0.296599388 -72.067352295 -81.667114258 70.182044983 0.0 -0.0 0.0 5.741601467 -15.176699638 -18.379497528 1.113800168 6.704601288 18.843202591 1.39779985 6.177000046 -25.326198578 0.112800032 -2.165800333 -5.964200974 0.0 -0.0 0.0 35.619800568 7.551400185 10.070098877 -1.577999592 -7.925498962 22.487897873 -0.826199889 10.014200211 -16.639801025 -2.207400084 -9.285398483 26.6921978 3.419900417 0.931300342 10.007500648 2.538300037 1.701399922 0.511199951 0.485799879 0.762799859 -5.060999393 -8.728699684 -12.897603035 -3.88970089 12.942297935 -17.410697937 1.258399844 4.35130024 -8.537499428 2.914299726 0.0 -0.0 0.0 -85.368385315 5.899097919 10.422100067 23.302303314 -34.417800903 -7.308503151 0.0 0.0 -1.51789999 14.092398643 -8.039399147 -2.010799885 -7.125 0.0 0.0 -9.239197731 21.733400345 5.2281003 0.0 -0.0 0.0 77.2970047 5.395396709 23.823600769 -48.94960022 52.562999725 -25.337696075 0.0 0.0 -6.29610014 -23.00220108 -21.716300964 8.926898956 7.125 -0.0 0.0 6.031400204 -53.277103424 -1.23150003 
-0.724798203 17.677600861 0.346299171 -74.82623291 -81.894554138 73.003013611 0.0 -0.0 0.0 5.583900928 -14.296502113 -18.647899628 1.070200086 6.576299667 18.465995789 1.371399999 5.061901093 -24.463003159 0.23709999 -3.133899689 -8.651900291 0.0 -0.0 0.0 35.46339798 7.738899708 10.530599594 -1.589399815 -7.952500343 22.569997787 -0.84619987 9.909000397 -16.798500061 -2.149599552 -9.170898438 26.331399918 3.032199383 0.89320004 10.03290081 2.595499992 1.607600212 0.572399914 0.77609992 0.726499915 -5.024599552 -9.109802246 -12.785500526 -3.869999647 13.303299904 -17.249599457 1.091000795 4.527999878 -8.458800316 2.911499977 0.0 -0.0 0.0 -85.34778595 5.725697041 10.281099319 23.774301529 -34.924602509 -7.576900482 0.0 0.0 -1.446499825 13.301001549 -7.856500149 -1.850900173 -7.125 0.0 0.0 -9.818699837 21.950000763 5.516301155 0.0 -0.0 0.0 77.414283752 6.070500374 22.693796158 -48.999404907 52.583904266 -25.377195358 0.0 0.0 -4.524499893 -21.758499146 -21.814998627 8.43669796 7.125 -0.0 0.0 7.33230114 -53.147304535 -1.475799322 
-0.839599609 17.669399261 0.400299072 -76.684577942 -81.884918213 74.904853821 0.0 -0.0 0.0 5.524400711 -13.674798965 -18.85159874 1.04490006 6.500501633 18.243904114 1.351999998 3.458600044 -23.451402664 0.213099986 -2.971999645 -8.200699806 0.0 -0.0 0.0 35.331409454 7.474701405 10.834300995 -1.590800166 -7.955898285 22.58029747 -0.87160027 9.886900902 -17.019701004 -2.058799982 -8.987603188 25.756502151 2.918299675 0.788900077 10.10890007 2.679799795 1.463699818 0.549699903 0.947599947 0.657599866 -5.097300053 -9.734902382 -12.687399864 -3.714100361 13.805603027 -17.134504318 1.10710001 4.778801441 -8.402100563 2.979599953 0.0 -0.0 0.0 -85.196411133 5.599701405 10.317099571 24.098493576 -35.268295288 -7.763397217 0.0 0.0 -1.107499719 12.836901665 -7.781698704 -1.767199993 -7.125 0.0 0.0 -10.15760231 22.042602539 5.69080019 0.0 -0.0 0.0 77.097206116 6.04779768 22.455108643 -49.964504242 52.981201172 -26.145801544 0.0 0.0 -3.859899998 -21.657600403 -21.725200653 8.361800194 7.125 -0.0 0.0 7.403699875 -53.03528595 -1.470000625 
-0.951599121 17.648500443 0.462399483 -77.326400757 -81.981880188 75.454696655 0.0 -0.0 0.0 5.067299366 -12.701000214 -19.160497665 1.049400091 6.514100552 18.283500671 1.201699853 2.370099783 -21.685503006 0.296300054 -3.500200033 -9.674701691 0.0 -0.0 0.0 35.509208679 8.059299469 11.69370079 -1.595700145 -7.967700958 22.616100311 -0.965900183 8.551501274 -17.657697678 -1.812799931 -8.464799881 24.134899139 2.740100145 0.646099985 10.454500198 2.614300013 1.267400026 0.535399914 1.004100084 0.5625 -5.308899879 -9.886099815 -12.744199753 -3.725999355 14.251998901 -17.255401611 1.217700005 4.911899567 -8.454601288 3.084699631 0.0 -0.0 0.0 -84.80039978 5.4477005 10.587900162 24.459497452 -35.646392822 -7.972795486 0.0 0.0 -1.097200036 12.602600098 -7.470500946 -1.665000081 -7.125 0.0 0.0 -10.343400002 22.364398956 5.721099854 0.0 -0.0 0.0 77.070907593 5.973497391 22.056499481 -50.93371582 53.365211487 -26.921615601 0.0 0.0 -3.609500647 -22.103401184 -21.310195923 8.395900726 7.125 -0.0 0.0 6.812699318 -52.685703278 -1.293299913 
-1.06139946 17.633600235 0.527400017 -79.213920593 -81.891410828 77.258605957 0.0 -0.0 0.0 4.756099224 -11.000999451 -19.748498917 1.074800014 6.590199471 18.506900787 1.025699973 0.83430016 -19.458301544 0.34709999 -3.785299301 -10.47329998 0.0 -0.0 0.0 35.721195221 8.326701164 12.327700615 -1.605399966 -7.990699768 22.685897827 -0.993499815 7.884999275 -17.84059906 -1.553800344 -7.867301464 22.311901093 2.882199526 0.490399897 10.79419899 2.584300041 1.087100148 0.582000077 0.917199969 0.467400163 -5.44740057 -8.877101898 -12.849001884 -3.962598801 13.778001785 -17.374500275 0.951199234 4.618000984 -8.517199516 2.925000191 0.0 -0.0 0.0 -84.44569397 5.19659996 10.631601334 24.893997192 -36.095500946 -8.227397919 0.0 0.0 -0.959099948 12.384198189 -7.192997932 -1.574899554 -7.125 0.0 0.0 -10.517297745 22.650699615 5.750400543 0.0 -0.0 0.0 76.766784668 6.258903027 22.0671978 -51.41639328 53.550994873 -27.309398651 0.0 0.0 -3.465199947 -22.141403198 -20.861902237 8.245002747 7.125 -0.0 0.0 6.629898548 -52.224502563 -1.183398724 
